<?xml version="1.0" encoding="utf-8"?>
<!-- Generator: Adobe Illustrator 25.3.1, SVG Export Plug-In . SVG Version: 6.00 Build 0)  -->
<svg version="1.1" id="Layer_1" xmlns="http://www.w3.org/2000/svg" xmlns:xlink="http://www.w3.org/1999/xlink" x="0px" y="0px"
	 viewBox="0 0 425.2 623.6" style="enable-background:new 0 0 425.2 623.6;" xml:space="preserve">
<style type="text/css">
	.st0{fill:#323231;}
	.st1{fill:url(#SVGID_1_);}
	.st2{fill:url(#SVGID_2_);}
	.st3{fill:url(#SVGID_3_);}
	.st4{fill:url(#SVGID_4_);}
</style>
<g>
	<path class="st0" d="M420.5,197.8c5-0.9-3.7-26.9-3.4-34.3c0-1.2,0-2.5-0.1-3.7c-2.1-35.8,11.3-70.3,29.3-100.4
		c8.2-17.3-31.2,38.9-35,50.9c-0.4,1.3-1,2.6-1.5,3.9C402,132.2,397.5,206.5,420.5,197.8z"/>
	<path class="st0" d="M465.6,324c-1.1-39-21.2-72.9-35.3-108c-2.1-3.1-2.8-13.9-6.9-13.5c-2.5,1.1-11.2-1-9.4,2.7
		c3.7,8.6,9,20.8,13,29.3c10.3,22.6,22.1,44.7,29.6,68.5c4.4,14.1,4.2,29.3,7.1,43.6C465.9,339.5,465.4,331.4,465.6,324z"/>
</g>
<path class="st0" d="M303.2,196.8c-0.5-2.4-2.1-6.3-3.4-9.1c-0.8-1.8,0.3-3.8,2.2-4.2l5.7-1.1c1.6-0.3,3.1,0.9,3.2,2.5
	c0.2,3.1,0.2,7.7-1.3,10.5C308.6,197.4,304.4,196.3,303.2,196.8z"/>
<g>
	<linearGradient id="SVGID_1_" gradientUnits="userSpaceOnUse" x1="-125.018" y1="167.9203" x2="172.2875" y2="167.9203">
		<stop  offset="0" style="stop-color:#BBD75D"/>
		<stop  offset="0.1849" style="stop-color:#ADCD58"/>
		<stop  offset="0.5319" style="stop-color:#8BBA4F"/>
		<stop  offset="1" style="stop-color:#50A045"/>
	</linearGradient>
	<path class="st1" d="M172.3,113.1c-16.9-2-35.1-0.5-51.4,3c-32.5,4.5-65.5,21.6-96.9,32.9c-46.8,15-97.8,31.3-149.1,35
		c6.1,43.7-5,44.6,30.6,34.4c62-16.7,122.6-38.6,182.4-61.2c17.7-6.4,35.8-12,54.1-17C163.7,134.2,167.4,137.3,172.3,113.1z"/>
	<linearGradient id="SVGID_2_" gradientUnits="userSpaceOnUse" x1="55.3741" y1="130.6162" x2="56.7645" y2="130.6162">
		<stop  offset="0" style="stop-color:#BBD75D"/>
		<stop  offset="0.1849" style="stop-color:#ADCD58"/>
		<stop  offset="0.5319" style="stop-color:#8BBA4F"/>
		<stop  offset="1" style="stop-color:#50A045"/>
	</linearGradient>
	<path class="st2" d="M56.6,130.7c0.8-0.8-1.2-0.6-1.2,0.2C55.8,131.1,56.2,131,56.6,130.7z"/>
</g>
<g>
	<path class="st0" d="M453.6,304.2c-95-16-206.5-42.2-285.3-87.8c-6.3-3.6-21.7-4.7-12-17c11.8-15.1,9.4-8.7-9.4-15.3
		C81.3,263.6,56.8,331.8,103,431c14.6,32.5,38.4,60.6,52.3,93.2c7.3-13.2-8.2-26.8-13-39c-6.6-12.6-12.7-25.5-18.2-38.6
		c-30.5-68-28.6-148.9,11.5-212.5c7-16.8,10.6-11.6,25.1-6.5c19.4,7.5,38.1,17.7,53.4,31.9c65.2,60.2,58.7,242.8,67.1,278.2
		c8.1-182.9-48-226.7,173.3-233.3C454.1,304.4,453.8,304.3,453.6,304.2z"/>
	<path class="st0" d="M160.5,166.1c8.7,3.6,13,10.9,16.9-1.1c5.5-9.7,13.6-25.4,17.8-35.7c20-44,15.8-98.5-5.1-139.7
		c-0.9-1.9-1.8-6.8-3.6-6.9c1.6,5.5,4,10.2,6,15.9c14.3,41.2,7.6,91.1-13.5,130.3C175.2,136.3,157.1,163.7,160.5,166.1z"/>
</g>
<g>
	<linearGradient id="SVGID_3_" gradientUnits="userSpaceOnUse" x1="97.4945" y1="174.0728" x2="488.6056" y2="174.0728">
		<stop  offset="0" style="stop-color:#BBD75D"/>
		<stop  offset="1.119572e-02" style="stop-color:#B8D55C"/>
		<stop  offset="0.215" style="stop-color:#94BF51"/>
		<stop  offset="0.4182" style="stop-color:#79B14B"/>
		<stop  offset="0.6184" style="stop-color:#63A747"/>
		<stop  offset="0.8141" style="stop-color:#55A246"/>
		<stop  offset="1" style="stop-color:#50A045"/>
	</linearGradient>
	<path class="st3" d="M488.4,168.1c-3.2-26.3-28.2-34.7-28.2-34.7s16.6,24.5,7.1,36.6c-27.5,35.1-162.1,26.6-212.8,17.9
		c-2-0.3-21.2-3.4-23.2-3.7c-28.9-4.9-56.1-16.1-82.3-28.4c-1.7-0.8-3.4-1.7-5.1-2.7c-13.6-7.8-17.1-6.2-31.5-0.8
		c-1.5,0.6-3,1.1-4.6,1.6c-16.1,5-12.5,5.1,2.3,13.4c83.9,44.3,183.3,54,277.7,43.3c2.2-0.2,4.3-0.6,6.5-1
		C421.6,204,492.7,202.8,488.4,168.1z"/>
	<linearGradient id="SVGID_4_" gradientUnits="userSpaceOnUse" x1="-12.6253" y1="104.3753" x2="87.8271" y2="104.3753">
		<stop  offset="0" style="stop-color:#BBD75D"/>
		<stop  offset="1.119572e-02" style="stop-color:#B8D55C"/>
		<stop  offset="0.215" style="stop-color:#94BF51"/>
		<stop  offset="0.4182" style="stop-color:#79B14B"/>
		<stop  offset="0.6184" style="stop-color:#63A747"/>
		<stop  offset="0.8141" style="stop-color:#55A246"/>
		<stop  offset="1" style="stop-color:#50A045"/>
	</linearGradient>
	<path class="st4" d="M87.8,119.6c-24.1-12.2-48-24.8-72.3-36.9C-7.7,68.8,1,78.3-12.6,101.1c18.8,12.7,41.9,20.8,60.7,31.4
		c6.7-0.3,13.5-4,20.8-5.9C74.5,124.1,84.3,123.5,87.8,119.6z"/>
</g>
</svg>
