<svg width="108" height="18" viewBox="0 0 108 18" fill="none" xmlns="http://www.w3.org/2000/svg">
<path d="M0.299805 14.7549L1.04102 13.8955C1.91471 14.6976 2.77767 15.2812 3.62988 15.6465C4.4821 16.0046 5.46322 16.1836 6.57324 16.1836C7.71908 16.1836 8.65365 15.8936 9.37695 15.3135C10.1003 14.7334 10.4619 13.9886 10.4619 13.0791C10.4619 12.5062 10.3438 12.0299 10.1074 11.6504C9.87825 11.2708 9.44141 10.9271 8.79688 10.6191C8.15951 10.3112 7.26432 10.0391 6.11133 9.80273C4.25651 9.42318 2.92448 8.89681 2.11523 8.22363C1.31315 7.54329 0.912109 6.6123 0.912109 5.43066C0.912109 4.27767 1.38118 3.31445 2.31934 2.54102C3.25749 1.76758 4.43913 1.38086 5.86426 1.38086C6.9528 1.38086 7.90169 1.53125 8.71094 1.83203C9.52018 2.12565 10.3294 2.59831 11.1387 3.25L10.4189 4.15234C9.70996 3.53646 8.98307 3.09245 8.23828 2.82031C7.50065 2.54818 6.69499 2.41211 5.82129 2.41211C4.7041 2.41211 3.79818 2.69499 3.10352 3.26074C2.40885 3.81934 2.06152 4.52116 2.06152 5.36621C2.06152 5.94629 2.17611 6.42969 2.40527 6.81641C2.6416 7.19596 3.08919 7.55046 3.74805 7.87988C4.41406 8.20215 5.34505 8.48503 6.54102 8.72852C8.32422 9.09375 9.61328 9.61296 10.4082 10.2861C11.2103 10.9593 11.6113 11.8688 11.6113 13.0146C11.6113 14.2464 11.1315 15.2562 10.1719 16.0439C9.21224 16.8245 7.98763 17.2148 6.49805 17.2148C5.28776 17.2148 4.1849 17.0143 3.18945 16.6133C2.20117 16.2122 1.23796 15.5928 0.299805 14.7549Z" fill="#212121"/>
<path d="M17.0344 17V0.94043H18.1086V17H17.0344Z" fill="#212121"/>
<path d="M24.144 2.85254V1.38086H25.4761V2.85254H24.144ZM24.2729 17V5.78516H25.3471V17H24.2729Z" fill="#212121"/>
<path d="M31.3503 17V5.78516H32.4353V7.7832C32.643 7.45378 32.8506 7.16732 33.0583 6.92383C33.266 6.68034 33.5167 6.44759 33.8103 6.22559C34.1111 5.99642 34.4584 5.82096 34.8523 5.69922C35.2533 5.57747 35.6937 5.5166 36.1736 5.5166C37.0902 5.5166 37.8637 5.74219 38.4939 6.19336C39.1312 6.63737 39.6182 7.21745 39.9548 7.93359C40.893 6.32227 42.2429 5.5166 44.0046 5.5166C45.3295 5.5166 46.3786 5.94271 47.1521 6.79492C47.9255 7.64714 48.3122 8.78223 48.3122 10.2002V17H47.238V10.3291C47.238 9.12598 46.9444 8.18783 46.3571 7.51465C45.7699 6.84147 44.9571 6.50488 43.9187 6.50488C42.9304 6.50488 42.0925 6.86296 41.405 7.5791C40.7175 8.29525 40.3737 9.25846 40.3737 10.4688V17H39.2995V10.2646C39.2995 9.10449 39.0023 8.18783 38.4079 7.51465C37.8207 6.84147 37.0258 6.50488 36.0232 6.50488C35.0206 6.50488 34.1719 6.89518 33.4773 7.67578C32.7826 8.44922 32.4353 9.40169 32.4353 10.5332V17H31.3503Z" fill="#212121"/>
<path d="M54 16.4043V1H55.0742L61.2617 10.1094L67.4385 1H68.5234V16.4043H67.374V3.03027L61.2832 11.8926H61.1973L55.0957 3.03027V16.4043H54Z" fill="#FC842D"/>
<path d="M73.8498 10.7969C73.8498 10.0163 73.9967 9.2679 74.2903 8.55176C74.5839 7.83561 74.9814 7.21256 75.4827 6.68262C75.984 6.14551 76.5963 5.7194 77.3196 5.4043C78.0429 5.08203 78.8127 4.9209 79.6291 4.9209C80.7105 4.9209 81.6916 5.18945 82.5725 5.72656C83.4605 6.25651 84.148 6.97266 84.635 7.875C85.1291 8.77018 85.3762 9.74414 85.3762 10.7969C85.3762 11.8424 85.1291 12.8128 84.635 13.708C84.1409 14.6032 83.4462 15.3229 82.551 15.8672C81.663 16.4043 80.6747 16.6729 79.5862 16.6729C78.7769 16.6729 78.0142 16.5153 77.2981 16.2002C76.5819 15.8851 75.9732 15.4626 75.4719 14.9326C74.9706 14.4027 74.5732 13.7796 74.2795 13.0635C73.9931 12.3402 73.8498 11.5846 73.8498 10.7969ZM75.01 10.7969C75.01 12.1504 75.454 13.2998 76.342 14.2451C77.2372 15.1833 78.3329 15.6523 79.6291 15.6523C80.4455 15.6523 81.2047 15.4375 81.9065 15.0078C82.6083 14.571 83.1669 13.9801 83.5823 13.2354C83.9976 12.4906 84.2053 11.6777 84.2053 10.7969C84.2053 9.45052 83.7541 8.30469 82.8518 7.35938C81.9495 6.4069 80.8609 5.93066 79.5862 5.93066C78.7554 5.93066 77.9892 6.14909 77.2873 6.58594C76.5855 7.01562 76.0305 7.60645 75.6223 8.3584C75.2141 9.10319 75.01 9.91602 75.01 10.7969Z" fill="#FC842D"/>
<path d="M90.4448 16.4043V5.18945H91.5298V7.1875C91.7374 6.85807 91.9451 6.57161 92.1528 6.32812C92.3605 6.08464 92.6111 5.85189 92.9048 5.62988C93.2055 5.40072 93.5529 5.22526 93.9468 5.10352C94.3478 4.98177 94.7882 4.9209 95.268 4.9209C96.1847 4.9209 96.9581 5.14648 97.5884 5.59766C98.2257 6.04167 98.7127 6.62174 99.0493 7.33789C99.9874 5.72656 101.337 4.9209 103.099 4.9209C104.424 4.9209 105.473 5.34701 106.247 6.19922C107.02 7.05143 107.407 8.18652 107.407 9.60449V16.4043H106.332V9.7334C106.332 8.53027 106.039 7.59212 105.452 6.91895C104.864 6.24577 104.052 5.90918 103.013 5.90918C102.025 5.90918 101.187 6.26725 100.499 6.9834C99.812 7.69954 99.4682 8.66276 99.4682 9.87305V16.4043H98.394V9.66895C98.394 8.50879 98.0968 7.59212 97.5024 6.91895C96.9152 6.24577 96.1203 5.90918 95.1177 5.90918C94.115 5.90918 93.2664 6.29948 92.5718 7.08008C91.8771 7.85352 91.5298 8.80599 91.5298 9.9375V16.4043H90.4448Z" fill="#FC842D"/>
</svg>
